<?xml version="1.0" encoding="UTF-8"?>
<svg viewBox="0 0 2493 1011" version="1.1" xmlns="http://www.w3.org/2000/svg" xmlns:xlink="http://www.w3.org/1999/xlink">
   <g id="Group-27" transform="translate(0.000000, 885.000000)">
        <path d="M305,4 L63.0004913,4 C46.7079555,4 31.9578327,10.6038549 21.2808438,21.2808438 C10.6038549,31.9578327 4,46.7079555 4,63.0004913 C4,79.2930271 10.6038549,94.0431499 21.2808438,104.720139 C31.9578327,115.397128 46.7079555,122.000983 63.0004913,122.000983 L305,122.000983 C306.656854,122.000983 308.156854,121.32941 309.242641,120.243623 C310.328427,119.157837 311,117.657837 311,116.000983 L311,106.714581 C311,104.615568 310.188762,102.69507 308.854093,101.262095 C307.519425,99.8291203 305.661325,98.8836674 303.567603,98.7347425 C289.724779,97.750106 279.43458,94.2360117 272.535942,88.5261423 C265.266108,82.5090412 261.498047,74.0462139 261.498047,63.0004917 C261.498047,51.9399279 265.27438,43.3927706 272.627668,37.2316561 C279.576775,31.4091945 289.951486,27.7121049 303.949375,26.4527227 C305.952077,26.2142727 307.710948,25.2467668 308.971475,23.8331245 C310.237017,22.4138564 311,20.544302 311,18.5094409 L311,10 C311,8.34314575 310.328427,6.84314575 309.242641,5.75735931 C308.156854,4.67157288 306.656854,4 305,4 Z" id="Rectangle-17" stroke="#141C3A" stroke-width="8" fill="#6E07F3"></path>
        <path d="M292.786115,27 L62,27 C52.0588745,27 43.0588745,31.0294373 36.5441559,37.5441559 C30.0294373,44.0588745 26,53.0588745 26,63 C26,72.9411255 30.0294373,81.9411255 36.5441559,88.4558441 C43.0588745,94.9705627 52.0588745,99 62,99 C170.896078,99 248.328246,99.207629 294.296506,99.6226771 L294.296501,99.622677 C286.250429,97.4498695 277.022582,94.3704156 270.470403,87.641048 C265.206835,82.235138 261.498047,74.5375027 261.498047,63 C261.498047,51.353038 265.276502,43.6274533 270.618803,38.2399335 C276.749875,32.0569662 285.175864,29.0416346 292.786115,27 Z" id="Rectangle-19" stroke="#141C3A" stroke-width="8" fill="#FFFFFF"></path>
        <path d="M57.9252336,72 L260.074766,72 C262.242613,72 264,73.790861 264,76 C264,78.209139 262.242613,80 260.074766,80 L57.9252336,80 C55.757387,80 54,78.209139 54,76 C54,73.790861 55.757387,72 57.9252336,72 Z" id="Rectangle-18" fill="#141C3A"></path>
        <path d="M57.9252336,46 L260.074766,46 C262.242613,46 264,47.790861 264,50 C264,52.209139 262.242613,54 260.074766,54 L57.9252336,54 C55.757387,54 54,52.209139 54,50 C54,47.790861 55.757387,46 57.9252336,46 Z" id="Rectangle-18" fill="#141C3A"></path>
   </g>
</svg>