<?xml version="1.0" encoding="UTF-8"?>
<svg viewBox="0 0 2493 1011" version="1.1" xmlns="http://www.w3.org/2000/svg" xmlns:xlink="http://www.w3.org/1999/xlink">
    <g id="Group-65" transform="translate(2253.000000, 800.000000)" stroke="#141C3A" stroke-width="8">
        <g id="Group-64" transform="translate(116.000000, 51.000000)" fill="#FFFFFF">
            <circle id="Oval-8" cx="60" cy="60" r="60"></circle>
            <circle id="Oval-8" cx="60" cy="60" r="35"></circle>
        </g>
        <circle id="Oval-8" fill="#FFFFFE" cx="96" cy="20" r="20"></circle>
        <path d="M177.929648,15 L8,15 C6.8954305,15 5.8954305,15.4477153 5.17157288,16.1715729 C4.44771525,16.8954305 4,17.8954305 4,19 L4,187 C4,192.522847 6.23857625,197.522847 9.85786438,201.142136 C13.4771525,204.761424 18.4771525,207 24,207 L161.929648,207 C167.452496,207 172.452496,204.761424 176.071784,201.142136 C179.691072,197.522847 181.929648,192.522847 181.929648,187 L181.929648,19 C181.929648,17.8954305 181.481933,16.8954305 180.758075,16.1715729 C180.034218,15.4477153 179.034218,15 177.929648,15 Z" id="Rectangle-16" fill="#FFFFFF"></path>
        <path d="M133,69 L97,69 C94.790861,69 92.790861,69.8954305 91.3431458,71.3431458 C89.8954305,72.790861 89,74.790861 89,77 L89,125 C89,127.209139 89.8954305,129.209139 91.3431458,130.656854 C92.790861,132.104569 94.790861,133 97,133 L133,133 C135.209139,133 137.209139,132.104569 138.656854,130.656854 C140.104569,129.209139 141,127.209139 141,125 L141,77 C141,74.790861 140.104569,72.790861 138.656854,71.3431458 C137.209139,69.8954305 135.209139,69 133,69 Z" id="Rectangle-16" fill="#5BE9B9"></path>
        <line x1="114.5" y1="16.5" x2="114.5" y2="62" id="Line-2" stroke-linecap="square"></line>
    </g>
</svg>